<svg id="Layer_1" data-name="Layer 1" xmlns="http://www.w3.org/2000/svg" viewBox="0 0 336 336">
    <path d="M91.06,216.75a1.43,1.43,0,0,1-2.11.3c-1-.45-1.42-1.27-1.12-2a1.77,1.77,0,0,1,2.1-.3C90.91,215.32,91.36,216.15,91.06,216.75Zm5,5.55c-.68.68-1.8.3-2.63-.45-.82-1-1-2.1-.3-2.62.68-.68,1.8-.3,2.63.45C96.6,220.65,96.75,221.78,96.08,222.3Zm4.87,7.27c-.67.45-2,0-2.77-1.12s-.82-2.4,0-2.93,2.1-.14,2.77,1C101.78,227.62,101.78,229,101,229.57Zm6.83,6.83c-.68.82-2.1.67-3.23-.45s-1.43-2.4-.67-3.07c.67-.83,2.1-.68,3.22.44S108.45,235.8,107.78,236.4Zm9.22,4c-.3,1-1.8,1.43-3.07,1-1.43-.31-2.4-1.43-2.1-2.4s1.8-1.43,3.07-1.13c1.5.45,2.48,1.58,2.1,2.55Zm10.28.82c0,1-1.13,1.8-2.63,1.8-1.65.15-2.77-.67-2.77-1.8,0-1,1.12-1.8,2.62-1.8C125.93,239.32,127.28,240.15,127.28,241.27Zm7.12.68c-1.42.3-2.77-.3-2.92-1.27-.15-1.13.82-2.11,2.25-2.4s2.77.45,2.92,1.42-.75,2-2.25,2.25ZM208,287.77c-6.3,1.13-8.63-2.77-8.63-6,0-4,.15-24.75.15-41.47,0-11.7-3.9-19.13-8.48-23,27.75-3.07,57-6.89,57-54.82,0-13.65-4.87-20.48-12.82-29.25,1.27-3.23,5.55-16.5-1.27-33.75-10.43-3.23-34.28,13.43-34.28,13.43a118,118,0,0,0-62.4,0S113.4,96.23,103,99.45c-6.82,17.17-2.62,30.45-1.27,33.75C93.76,142,90,148.8,90,162.45c0,47.7,28,51.75,55.72,54.82-3.6,3.23-6.82,8.78-7.94,16.73-7.13,3.23-25.36,8.77-36.23-10.43a26.13,26.13,0,0,0-19.13-12.82c-12.14-.15-.82,7.65-.82,7.65,8.1,3.75,13.8,18.15,13.8,18.15,7.27,22.27,42.07,14.77,42.07,14.77,0,10.43.15,27.38.15,30.45,0,3.23-2.25,7.12-8.62,6C79.51,271.2,44.86,224.09,44.86,169c0-68.85,52.65-121.12,121.5-121.12S291,100.2,291,169.05c.07,55-33.52,102.23-83,118.73ZM300,0H36A36,36,0,0,0,0,36V300a36,36,0,0,0,36,36H300a36,36,0,0,0,36-36V36A36,36,0,0,0,300,0Z"/>
</svg>