<svg id="Capa_1" style="enable-background:new 0 0 512 512;" version="1.1" viewBox="0 0 512 512" xml:space="preserve" xmlns="http://www.w3.org/2000/svg" xmlns:xlink="http://www.w3.org/1999/xlink">
	<style type="text/css">
		.st0{fill:#232323;}
	</style>
	<g>
		<path class="st0" d="M472.6,75.3H39.4C17.7,75.3,0,92.9,0,114.7v297.6c0,21.7,17.7,39.4,39.4,39.4h433.2   c21.7,0,39.4-17.7,39.4-39.4V114.7C512,92.9,494.3,75.3,472.6,75.3z M492.7,412.2c0,11.1-9,20.1-20.1,20.1H39.4   c-11.1,0-20.2-9-20.2-20.1V114.7c0-11.1,9-20.2,20.2-20.2h433.2c11.1,0,20.1,9,20.1,20.2V412.2z"/><path class="st0" d="M416.2,170c2.2,0,4.4-0.7,6.2-2.2l45.7-38.2c4.1-3.4,4.6-9.5,1.2-13.6c-3.4-4.1-9.5-4.6-13.6-1.2L410,153   c-4.1,3.4-4.6,9.5-1.2,13.6C410.7,168.8,413.5,170,416.2,170z"/><path class="st0" d="M376.7,193.4c-3.4-4.1-9.5-4.6-13.6-1.2l-105.4,88.2L51.3,114.7c-4.1-3.3-10.2-2.7-13.5,1.5   c-3.3,4.1-2.7,10.2,1.5,13.5l212.6,170.7c1.8,1.4,3.9,2.1,6,2.1c2.2,0,4.4-0.8,6.2-2.2L375.5,207   C379.5,203.6,380.1,197.5,376.7,193.4z"/><path class="st0" d="M330.9,274.4c-4-3.6-10-3.3-13.6,0.7c-3.6,3.9-3.3,10,0.7,13.6l137.4,124.1c1.8,1.7,4.1,2.5,6.4,2.5   c2.6,0,5.2-1.1,7.1-3.2c3.6-3.9,3.3-10-0.7-13.6L330.9,274.4z"/><path class="st0" d="M176.2,274.4L38.8,398.5c-3.9,3.6-4.3,9.7-0.7,13.6c1.9,2.1,4.5,3.2,7.1,3.2c2.3,0,4.6-0.8,6.4-2.5   l137.4-124.1c3.9-3.6,4.3-9.7,0.7-13.6C186.3,271.1,180.2,270.8,176.2,274.4z"/>
	</g>
</svg>